<svg width="40" height="40" viewBox="0 0 40 40" fill="none" xmlns="http://www.w3.org/2000/svg">
<path d="M39.9287 35.7058L36.3854 21.2667C36.1196 20.2924 35.1451 19.6722 34.1708 19.8495C34.1708 19.8495 27.0841 21.2667 26.907 21.2667C25.5782 23.7471 24.1609 26.1388 22.8322 28.3534C22.2121 29.3278 21.1491 29.9479 19.9976 29.9479C18.846 29.9479 17.783 29.3278 17.1629 28.3534C15.1255 24.9872 12.911 21.0896 11.2279 17.4577L4.76133 20.0266C4.22983 20.2924 3.78692 20.7352 3.60975 21.3554L0.0664372 35.6172C-0.110729 36.2373 0.0664371 36.9459 0.597934 37.4774C1.04085 37.9203 1.74951 38.0975 2.45818 37.9203L12.468 35.2629C12.8224 35.1743 13.1767 35.1743 13.531 35.2629L26.3756 39.4263C26.6413 39.5148 26.9071 39.5148 27.2614 39.5148L38.3342 38.0975C38.8657 38.0089 39.3972 37.7432 39.663 37.3003C39.9287 36.8574 40.1058 36.2373 39.9287 35.7058Z" fill="white"/>
<path d="M19.9976 27.379C20.2634 27.379 20.4405 27.2018 20.6176 27.0246C22.655 23.7471 28.8558 13.1171 28.8558 9.04231C28.8558 4.17026 24.8696 0.184036 19.9975 0.184036C15.1255 0.184036 11.1393 4.17026 11.1393 9.04231C11.1393 13.1171 17.34 23.7471 19.3775 27.0246C19.5547 27.2018 19.8204 27.379 19.9976 27.379ZM15.657 8.95373C15.657 6.65058 17.5172 4.70176 19.909 4.70176C22.2121 4.70176 24.1609 6.562 24.1609 8.95373C24.1609 11.2569 22.3007 13.2057 19.909 13.2057C17.5172 13.2057 15.657 11.3455 15.657 8.95373Z" fill="white"/>
</svg>
